<svg xmlns="http://www.w3.org/2000/svg" viewBox="0 0 144.75 138.39"><defs><style>.cls-1{fill:#ccc;}.cls-2{fill:#6c63ff;}.cls-3{opacity:0.1;isolation:isolate;}.cls-4{fill:#fff;}.cls-5{fill:#3f3d56;}</style></defs><g id="Layer_2" data-name="Layer 2"><g id="Layer_1-2" data-name="Layer 1"><path class="cls-1" d="M130.35,67.48c-12-9-30.84-17.48-51.64-23.31-18.93-5.31-37.4-7.87-52-7.21l-.08-1.7c14.78-.66,33.45,1.92,52.55,7.28,21,5.88,40,14.48,52.2,23.58Z"/><path class="cls-2" d="M129.1,74.4a56.56,56.56,0,0,1-4.89,23.1c-.27.61-.55,1.21-.85,1.81A56.79,56.79,0,0,1,15.53,74.4c0-1.31,0-2.62.13-3.91,0-.66.1-1.31.17-2A56.79,56.79,0,0,1,129.1,74.4Z"/><path class="cls-3" d="M124.21,97.5c-.27.61-.55,1.21-.85,1.81-1.66.18-3.4.31-5.24.39-1.52.07-3.08.11-4.68.11-13.94,0-30.72-2.58-47.87-7.38-19.11-5.36-36.39-12.85-48.68-21.1l-1.23-.84c0-.66.1-1.31.17-2,.65.46,1.32.93,2,1.39C30,78.07,47.09,85.48,66,90.79c17,4.76,33.62,7.32,47.41,7.32,1.57,0,3.11,0,4.61-.1Q121.32,97.86,124.21,97.5Z"/><path class="cls-1" d="M113.44,98.45c-13.94,0-30.72-2.58-47.87-7.38C46.46,85.71,29.18,78.22,16.89,70,4.36,61.55-1.52,53.26.34,46.61s11.2-10.68,26.28-11.35L26.7,37c-7,.31-12.79,1.36-17.07,3.11s-6.84,4.1-7.65,7,.16,6.25,2.9,10,7.11,7.6,13,11.53C30,76.71,47.09,84.12,66,89.43c17,4.76,33.62,7.32,47.41,7.32,1.57,0,3.11,0,4.6-.1,7-.32,12.79-1.37,17.07-3.12s6.85-4.1,7.66-7c1.46-5.2-3-12-12.42-19l1-1.36c4.87,3.64,8.48,7.23,10.72,10.67,2.4,3.69,3.18,7.12,2.32,10.2-1.87,6.65-11.2,10.68-26.29,11.35C116.6,98.41,115,98.45,113.44,98.45Z"/><circle class="cls-1" cx="117.85" cy="10.62" r="1.47"/><circle class="cls-1" cx="26.75" cy="20.39" r="1.6"/><polygon class="cls-1" points="119.7 135.76 117.98 135.76 117.98 134.04 117.06 134.04 117.06 135.76 115.35 135.76 115.35 136.68 117.06 136.68 117.06 138.39 117.98 138.39 117.98 136.68 119.7 136.68 119.7 135.76"/><circle class="cls-3" cx="73.17" cy="29.93" r="4.77"/><circle class="cls-3" cx="36.51" cy="64.86" r="4.77"/><circle class="cls-3" cx="89.22" cy="112.79" r="4.77"/><circle class="cls-3" cx="73.17" cy="72.23" r="4.77"/><circle class="cls-3" cx="38.9" cy="98.48" r="4.77"/><circle class="cls-3" cx="98.76" cy="46.64" r="4.77"/><circle class="cls-3" cx="114.6" cy="78.96" r="4.77"/><circle class="cls-4" cx="73.17" cy="51.41" r="6.29"/><path class="cls-1" d="M73.17,42.3a8.9,8.9,0,0,0-8.9,8.89c0,4.91,8.9,21,8.9,21s8.89-16.13,8.89-21A8.89,8.89,0,0,0,73.17,42.3Zm0,13.23a4.12,4.12,0,1,1,4.12-4.12,4.12,4.12,0,0,1-4.12,4.12Z"/><circle class="cls-4" cx="38.9" cy="78.31" r="6.29"/><path class="cls-1" d="M38.9,69.19a8.9,8.9,0,0,0-8.9,8.9c0,4.91,8.9,21,8.9,21s8.89-16.13,8.89-21A8.9,8.9,0,0,0,38.9,69.19Zm0,13.24A4.13,4.13,0,1,1,43,78.31a4.13,4.13,0,0,1-4.12,4.12Z"/><circle class="cls-4" cx="114.6" cy="58.78" r="6.29"/><path class="cls-1" d="M114.6,49.67a8.9,8.9,0,0,0-8.9,8.9h0c0,4.91,8.9,21,8.9,21s8.89-16.13,8.89-21a8.89,8.89,0,0,0-8.89-8.9Zm0,13.23a4.12,4.12,0,1,1,4.12-4.12,4.11,4.11,0,0,1-4.12,4.12Z"/><circle class="cls-4" cx="73.17" cy="9.11" r="6.29"/><path class="cls-1" d="M73.17,0a8.9,8.9,0,0,0-8.9,8.89c0,4.92,8.9,21,8.9,21s8.89-16.12,8.89-21A8.89,8.89,0,0,0,73.17,0Zm0,13.23a4.12,4.12,0,1,1,4.12-4.12,4.11,4.11,0,0,1-4.12,4.12Z"/><circle class="cls-4" cx="89.22" cy="92.62" r="6.29"/><path class="cls-5" d="M89.22,83.51a8.89,8.89,0,0,0-8.89,8.89c0,4.92,8.89,21,8.89,21s8.89-16.12,8.89-21a8.89,8.89,0,0,0-8.89-8.89Zm0,13.23a4.12,4.12,0,1,1,4.12-4.12,4.11,4.11,0,0,1-4.12,4.12Z"/><circle class="cls-4" cx="36.51" cy="44.25" r="6.29"/><path class="cls-5" d="M36.51,35.14A8.89,8.89,0,0,0,27.62,44c0,4.91,8.89,21,8.89,21S45.4,48.94,45.4,44A8.89,8.89,0,0,0,36.51,35.14Zm0,13.23a4.12,4.12,0,1,1,4.12-4.12,4.11,4.11,0,0,1-4.12,4.12Z"/><circle class="cls-4" cx="98.76" cy="26.68" r="6.29"/><path class="cls-5" d="M98.76,17.57a8.89,8.89,0,0,0-8.89,8.89c0,4.91,8.89,21,8.89,21s8.9-16.13,8.9-21A8.9,8.9,0,0,0,98.76,17.57Zm0,13.23a4.12,4.12,0,1,1,4.12-4.12,4.12,4.12,0,0,1-4.12,4.12Z"/></g></g></svg>