<?xml version="1.0" encoding="utf-8"?>
<!-- Generator: Adobe Illustrator 24.2.1, SVG Export Plug-In . SVG Version: 6.00 Build 0)  -->
<svg version="1.1" id="Layer_1" xmlns="http://www.w3.org/2000/svg" xmlns:xlink="http://www.w3.org/1999/xlink" x="0px" y="0px"
	 viewBox="0 0 968.6 766.3" style="enable-background:new 0 0 968.6 766.3;" xml:space="preserve">
<style type="text/css">
	.st0{fill:#FFFFFF;stroke:#FFFFFF;stroke-width:0.8629;stroke-miterlimit:10;}
	.st1{fill:#FFFFFF;stroke:#FFFFFF;stroke-width:0.8629;stroke-miterlimit:10;enable-background:new    ;}
	.st2{fill:#FFFFFF;stroke:#FFFFFF;stroke-width:20.7098;stroke-miterlimit:10;enable-background:new    ;}
	.st3{fill:#FFFFFF;stroke:#FFFFFF;stroke-width:20.7098;stroke-miterlimit:10;}
</style>
<g>
	
		<ellipse transform="matrix(0.7992 -0.6011 0.6011 0.7992 -134.4438 217.7822)" class="st0" cx="258.7" cy="310.1" rx="25.8" ry="14.8"/>
	
		<ellipse transform="matrix(0.7992 -0.6011 0.6011 0.7992 -172.5693 210.095)" class="st0" cx="228.1" cy="363.3" rx="25.8" ry="14.8"/>
	
		<ellipse transform="matrix(0.7992 -0.6011 0.6011 0.7992 -211.1759 202.0759)" class="st0" cx="196.8" cy="417.1" rx="25.8" ry="14.8"/>
	
		<ellipse transform="matrix(0.7992 -0.6011 0.6011 0.7992 -120.7116 258.787)" class="st0" cx="326.9" cy="310.1" rx="25.8" ry="14.8"/>
	
		<ellipse transform="matrix(0.7992 -0.6011 0.6011 0.7992 -158.8378 251.0999)" class="st0" cx="296.4" cy="363.3" rx="25.8" ry="14.8"/>
	
		<ellipse transform="matrix(0.7992 -0.6011 0.6011 0.7992 -197.4444 243.0804)" class="st0" cx="265.1" cy="417" rx="25.8" ry="14.8"/>
</g>
<ellipse transform="matrix(0.9989 -4.740412e-02 4.740412e-02 0.9989 -22.2546 22.8037)" class="st1" cx="469.7" cy="480.6" rx="18.4" ry="25.8"/>
<path class="st2" d="M469.7,676.9c-6.5,10.1-15.7,10.1-22.1,0L345.2,499.8c-6.5-10.1-6.5-27.7,0-37.8l65.5-113.4l-6.5-12L335,456.5
	c-6.5,10.1-21.2,19.4-33.2,19.4H97.1c-12,0-17.5-8.3-11.1-19.4l102.4-177.1c6.5-10.1,21.2-19.4,33.2-19.4h165.1l6.5-10.1H216
	c-12,0-26.7,8.3-33.2,19.4L71.2,462.9c-6.5,10.1-6.5,27.7,0,37.8l111.6,193.7c6.5,10.1,21.2,19.4,33.2,19.4h223.2
	c12,0,26.7-8.3,33.2-19.4l101.4-177.1l-11.1-0.9L469.7,676.9z M426.3,702.7H221.6c-12,0-26.7-8.3-33.2-19.4L86,506.3
	c-6.5-10.1-0.9-19.4,11.1-19.4h204.7c12,0,26.7,8.3,33.2,19.4l102.4,177.1C443.8,693.5,438.3,702.7,426.3,702.7z"/>
<path class="st2" d="M572,462c6.5,10.1,6.5,27.7,0,37.8l-3.7,7.4h11.1l4.6-7.4c6.5-10.1,6.5-27.7,0-37.8l-21.2-36.9l-5.5,9.2
	L572,462z"/>
<path class="st2" d="M898.5,277.6L793.4,80.2c-5.5-11.1-20.3-19.4-32.3-20.3l-223.2-7.4c-12,0-27.7,7.4-34.1,18.4L392.2,249.9h12
	L505.6,86.7c6.5-10.1,16.6-10.1,22.1,0.9l95.9,180.8c5.5,11.1,5.5,27.7-0.9,37.8l-66.4,107l6.5,12l70.1-112.5
	c6.5-10.1,21.2-18.4,34.1-18.4l204.7,6.5c12,0,16.6,9.2,10.1,19.4L774,494.3c-6.5,10.1-21.2,18.4-34.1,18.4l-160.5-5.5l-5.5,9.2
	l171.5,5.5c12,0,27.7-7.4,34.1-18.4l118.1-189.1C903.1,305.2,904,287.7,898.5,277.6z M871.8,289.6L667,283.1
	c-12,0-26.7-9.2-32.3-20.3L538.8,82c-5.5-11.1,0-19.4,12-18.4l204.7,6.5c12,0,26.7,9.2,32.3,20.3l96.8,180.8
	C889.3,281.3,883.8,289.6,871.8,289.6z"/>
<polygon class="st2" points="397.7,260 404.2,249 393.1,249 386.7,260 "/>
<polygon class="st2" points="557.5,434.8 562.8,425.1 556.4,413.1 548.3,419.6 "/>
<polygon class="st2" points="568.3,507.2 562.8,516.4 573.9,517.4 579.4,507.2 "/>
<polygon class="st2" points="410.6,325.5 404.2,336.6 410.6,348.6 417.1,337.5 "/>
<g>
	
		<ellipse transform="matrix(0.8189 -0.5739 0.5739 0.8189 -129.9433 491.7169)" class="st0" cx="714.2" cy="451.8" rx="25.8" ry="14.8"/>
	
		<ellipse transform="matrix(0.8189 -0.5739 0.5739 0.8189 -72.3505 502.3923)" class="st0" cx="759.9" cy="365.8" rx="25.8" ry="14.8"/>
	
		<ellipse transform="matrix(0.8189 -0.5739 0.5739 0.8189 -140.8489 451.9337)" class="st0" cx="645.7" cy="449.2" rx="25.8" ry="14.8"/>
	<ellipse transform="matrix(0.8189 -0.5739 0.5739 0.8189 -83.593 463.0496)" class="st0" cx="692" cy="364" rx="25.8" ry="14.8"/>
</g>
<g>
	<g>
		<path class="st3" d="M556.4,413.1l-72.9-125.4c-0.9,4.6-1.8,8.3-4.6,12l71,122.7L556.4,413.1z"/>
		<path class="st3" d="M454,261.9c1.8-2.8,4.6-4.6,6.5-5.5c-6.5-4.6-14.8-7.4-21.2-7.4h-35l-6.5,10.1h28.6c12,0,17.5,8.3,11.1,19.4
			l-26.7,47l6.5,12l30.4-52.6C446.6,276.6,449.4,267.4,454,261.9z"/>
		<path class="st3" d="M472.4,268.3l11.1,19.4c0.9-8.3,0-16.6-3.7-23.1c-4.6-8.3-12-11.1-19.4-8.3C466,260,469.7,263.7,472.4,268.3z
			"/>
		<path class="st3" d="M472.4,268.3c-2.8-4.6-6.5-8.3-12-12c-2.8,0.9-4.6,2.8-6.5,5.5c-4.6,5.5-6.5,14.8-6.5,23.1V284
			c6.5-10.1,15.7-10.1,22.1,0l9.2,15.7c1.8-3.7,3.7-7.4,4.6-12L472.4,268.3z"/>
	</g>
	<g>
		<path class="st3" d="M556.4,413.1l-72.9-125.4c-0.9,4.6-1.8,8.3-4.6,12l71.2,122.9L556.4,413.1z"/>
		<path class="st3" d="M454,261.9c1.8-2.8,4.6-4.6,6.5-5.5c-6.5-4.6-14.8-7.4-21.2-7.4h-35l-6.5,11.1l28.6-0.9
			c12,0,17.5,8.3,11.1,19.4l-26.7,47l6.5,12l30.4-52.6C446.6,276.6,449.4,267.4,454,261.9z"/>
		<path class="st3" d="M472.4,268.3l11.1,19.4c0.9-8.3,0-16.6-3.7-23.1c-4.6-8.3-12-11.1-19.4-8.3C466,260,469.7,263.7,472.4,268.3z
			"/>
		<path class="st3" d="M472.4,268.3c-2.8-4.6-6.5-8.3-12-12c-2.8,0.9-4.6,2.8-6.5,5.5c-4.6,5.5-11.5,15-6.5,23.1l0,0
			c6.5-10.1,15.7-11.1,22.1-0.9l9.2,15.7c3.3-2.4,3.7-7.4,4.6-12L472.4,268.3z"/>
	</g>
</g>
<ellipse transform="matrix(0.9999 -1.378735e-02 1.378735e-02 0.9999 -3.8381 7.5576)" class="st1" cx="546.2" cy="282.1" rx="18.4" ry="25.8"/>
<path class="st1" d="M313.8,647.4c19.4-8.3,25.8-25.8,13.8-45.2c-16.6-28.6-63.6-51.6-105.1-51.6s-61.8,23.1-45.2,51.6
	c16.6,28.6,63.6,51.6,105.1,51.6c6.5,0,12.9-0.9,18.4-1.8c12,6.5,27.7,14.8,43.3,14.8C344.2,665.8,328.6,658.5,313.8,647.4z
	 M222.5,615.1c-7.4,0-16.6-6.5-21.2-13.8s-1.8-13.8,5.5-13.8c7.4,0,16.6,6.5,21.2,13.8C232.6,609.6,230.8,615.1,222.5,615.1z
	 M262.1,615.1c-7.4,0-16.6-6.5-21.2-13.8s-1.8-13.8,5.5-13.8c7.4,0,16.6,6.5,21.2,13.8C272.3,609.6,269.5,615.1,262.1,615.1z
	 M298.1,615.1c-7.4,0-16.6-6.5-21.2-13.8s-1.8-13.8,5.5-13.8c7.4,0,16.6,6.5,21.2,13.8C308.3,609.6,306.4,615.1,298.1,615.1z"/>
<path class="st1" d="M770.3,215.8c19.4-8.3,25.8-25.8,13.8-45.2c-16.6-28.6-63.6-51.6-105.1-51.6c-41.5,0-61.8,23.1-45.2,51.6
	c16.6,28.6,63.6,51.6,105.1,51.6c6.5,0,12.9-0.9,18.4-1.8c12,6.5,27.7,14.8,43.3,14.8C800.8,234.2,785.1,226.8,770.3,215.8z
	 M679,183.5c-7.4,0-16.6-6.5-21.2-13.8c-4.6-7.4-1.8-13.8,5.5-13.8c7.4,0,16.6,6.5,21.2,13.8C689.2,177,686.4,183.5,679,183.5z
	 M717.7,183.5c-7.4,0-16.6-6.5-21.2-13.8c-4.6-7.4-1.8-13.8,5.5-13.8c7.4,0,16.6,6.5,21.2,13.8C727.9,177,725.1,183.5,717.7,183.5z
	 M754.6,183.5c-7.4,0-16.6-6.5-21.2-13.8c-4.6-7.4-1.8-13.8,5.5-13.8s16.6,6.5,21.2,13.8C764.8,177,762,183.5,754.6,183.5z"/>
</svg>
