<?xml version="1.0" encoding="utf-8"?>
<!-- Generator: Adobe Illustrator 24.2.1, SVG Export Plug-In . SVG Version: 6.00 Build 0)  -->
<svg version="1.1" id="Layer_1" xmlns="http://www.w3.org/2000/svg" xmlns:xlink="http://www.w3.org/1999/xlink" x="0px" y="0px"
	 viewBox="0 0 968.6 766.3" style="enable-background:new 0 0 968.6 766.3;" xml:space="preserve">
<style type="text/css">
	.st0{fill:#FFFFFF;stroke:#FFFFFF;stroke-width:20.7098;stroke-miterlimit:10;}
	.st1{fill:#040D21;}
	.st2{fill:#FFFFFF;}
	.st3{fill:none;}
</style>
<polygon class="st0" points="342.2,493.3 451.3,692.5 530.5,592.9 587,468.4 460.5,271.5 "/>
<polygon class="st0" points="187.8,262.8 447.4,267 331.9,501.9 296.4,491.3 74.1,481.8 "/>
<g>
	
		<ellipse transform="matrix(0.7992 -0.6011 0.6011 0.7992 -134.4496 217.7828)" class="st1" cx="258.7" cy="310.1" rx="25.8" ry="14.8"/>
	
		<ellipse transform="matrix(0.7992 -0.6011 0.6011 0.7992 -172.5873 210.0762)" class="st1" cx="228.1" cy="363.3" rx="25.8" ry="14.8"/>
	
		<ellipse transform="matrix(0.7992 -0.6011 0.6011 0.7992 -211.2032 202.0751)" class="st1" cx="196.8" cy="417.1" rx="25.8" ry="14.8"/>
	
		<ellipse transform="matrix(0.7992 -0.6011 0.6011 0.7992 -120.7522 258.8015)" class="st1" cx="326.9" cy="310.1" rx="25.8" ry="14.8"/>
	
		<ellipse transform="matrix(0.7992 -0.6011 0.6011 0.7992 -158.8379 251.1305)" class="st1" cx="296.4" cy="363.3" rx="25.8" ry="14.8"/>
	
		<ellipse transform="matrix(0.7992 -0.6011 0.6011 0.7992 -197.4176 243.0773)" class="st1" cx="265.1" cy="417" rx="25.8" ry="14.8"/>
</g>
<ellipse transform="matrix(0.9989 -4.740297e-02 4.740297e-02 0.9989 -22.2543 22.806)" class="st1" cx="469.7" cy="480.6" rx="18.4" ry="25.8"/>
<path class="st2" d="M469.7,676.9c-6.5,10.1-15.7,10.1-22.1,0L345.2,499.8c-6.5-10.1-6.5-27.7,0-37.8l65.5-113.4l-6.5-12L335,456.5
	c-6.5,10.1-21.2,19.4-33.2,19.4H97.1c-12,0-17.5-8.3-11.1-19.4l102.4-177.1c6.5-10.1,21.2-19.4,33.2-19.4h165.1l6.5-10.1H216
	c-12,0-26.7,8.3-33.2,19.4L71.2,462.9c-6.5,10.1-6.5,27.7,0,37.8l111.6,193.7c6.5,10.1,21.2,19.4,33.2,19.4h223.2
	c12,0,26.7-8.3,33.2-19.4l101.4-177.1l-11.1-0.9L469.7,676.9z M426.3,702.7H221.6c-12,0-26.7-8.3-33.2-19.4L86,506.3
	c-6.5-10.1-0.9-19.4,11.1-19.4h204.7c12,0,26.7,8.3,33.2,19.4l102.4,177.1C443.8,693.5,438.3,702.7,426.3,702.7z"/>
<path class="st0" d="M572,462c6.5,10.1,6.5,27.7,0,37.8l-3.7,7.4h11.1l4.6-7.4c6.5-10.1,6.5-27.7,0-37.8l-21.2-36.9l-5.5,9.2
	L572,462z"/>
<polygon class="st0" points="397.7,260 404.2,249 393.1,249 386.7,260 "/>
<polygon class="st0" points="557.5,434.8 562.8,425.1 556.4,413.1 548.3,419.6 "/>
<polygon class="st0" points="568.3,507.2 562.8,516.4 573.9,517.4 579.4,507.2 "/>
<g>
	<polygon class="st2" points="546.2,501.9 592.4,355.1 655.6,290.6 897.8,299.7 789.9,486.9 759.9,512.3 	"/>
	<path class="st2" d="M763.4,522.8l-231.1-11.2l51-162l68.1-69.5l209.8,7.9c24.6,0.9,39.4,27.7,27.1,49l-90.4,156.7L763.4,522.8z
		 M560.1,492.2l196.2,9.5l25.5-21.6l98.5-170.8l-220.5-8.3l-58.2,59.4L560.1,492.2z"/>
</g>
<polygon class="st0" points="410.6,325.5 404.2,336.6 410.6,348.6 417.1,337.5 "/>
<g>
	
		<ellipse transform="matrix(0.8189 -0.5739 0.5739 0.8189 -129.9729 491.706)" class="st1" cx="714.2" cy="451.8" rx="25.8" ry="14.8"/>
	
		<ellipse transform="matrix(0.8189 -0.5739 0.5739 0.8189 -72.3611 502.3424)" class="st1" cx="759.9" cy="365.8" rx="25.8" ry="14.8"/>
	
		<ellipse transform="matrix(0.8189 -0.5739 0.5739 0.8189 -140.8834 451.9265)" class="st1" cx="645.7" cy="449.2" rx="25.8" ry="14.8"/>
	<ellipse transform="matrix(0.8189 -0.5739 0.5739 0.8189 -83.5917 463.0511)" class="st1" cx="692" cy="364" rx="25.8" ry="14.8"/>
</g>
<polygon class="st0" points="83.3,486.9 301.8,486.9 349.4,512.3 440.1,692.5 433.3,713.8 216,713.8 171.5,674.8 "/>
<path class="st1" d="M461.7,244.8c18.4,10.4,32.7,41,32.7,41l22-18.1l-33.1-28L461.7,244.8z"/>
<g>
	<g>
		<path class="st0" d="M556.4,413.1l-72.9-125.4c-0.9,4.6-1.8,8.3-4.6,12l71,122.7L556.4,413.1z"/>
		<path class="st0" d="M454,261.9c1.8-2.8,4.6-4.6,6.5-5.5c-6.5-4.6-14.8-7.4-21.2-7.4h-35l-6.5,10.1h28.6c12,0,17.5,8.3,11.1,19.4
			l-26.7,47l6.5,12l30.4-52.6C446.6,276.6,449.4,267.4,454,261.9z"/>
		<path class="st0" d="M472.4,268.3l11.1,19.4c0.9-8.3,0-16.6-3.7-23.1c-4.6-8.3-12-11.1-19.4-8.3C466,260,469.7,263.7,472.4,268.3z
			"/>
		<path class="st0" d="M472.4,268.3c-2.8-4.6-6.5-8.3-12-12c-2.8,0.9-4.6,2.8-6.5,5.5c-4.6,5.5-6.5,14.8-6.5,23.1V284
			c6.5-10.1,15.7-10.1,22.1,0l9.2,15.7c1.8-3.7,3.7-7.4,4.6-12L472.4,268.3z"/>
	</g>
	<g>
		<path class="st0" d="M556.4,413.1l-72.9-125.4c-0.9,4.6-1.8,8.3-4.6,12l71.2,122.9L556.4,413.1z"/>
		<path class="st0" d="M454,261.9c1.8-2.8,4.6-4.6,6.5-5.5c-6.5-4.6-14.8-7.4-21.2-7.4h-35l-6.5,11.1l28.6-0.9
			c12,0,17.5,8.3,11.1,19.4l-26.7,47l6.5,12l30.4-52.6C446.6,276.6,449.4,267.4,454,261.9z"/>
		<path class="st0" d="M472.4,268.3l11.1,19.4c0.9-8.3,0-16.6-3.7-23.1c-4.6-8.3-12-11.1-19.4-8.3C466,260,469.7,263.7,472.4,268.3z
			"/>
		<path class="st0" d="M472.4,268.3c-2.8-4.6-6.5-8.3-12-12c-2.8,0.9-4.6,2.8-6.5,5.5c-4.6,5.5-11.5,15-6.5,23.1l0,0
			c6.5-10.1,15.7-11.1,22.1-0.9l9.2,15.7c3.3-2.4,3.7-7.4,4.6-12L472.4,268.3z"/>
	</g>
</g>
<path class="st0" d="M397.8,254.5L510.4,75.1c3.4-5.4,11.3-5.6,14.9-0.2l45.8,68.1l63.4,142.9l-77,149L397.8,254.5z"/>
<ellipse transform="matrix(0.9999 -1.378742e-02 1.378742e-02 0.9999 -3.8375 7.5575)" class="st1" cx="546.2" cy="282.1" rx="18.4" ry="25.8"/>
<g>
	<polygon class="st2" points="521.3,68.9 645.7,285.8 902.2,293.3 782.6,72.1 	"/>
	<path class="st2" d="M900.4,303.6L639.6,296L503.3,58.3l285.6,3.5L910.6,287C914.7,294.6,909,303.9,900.4,303.6z M651.8,275.6
		l232.7,6.8L776.4,82.4l-237.2-2.9L651.8,275.6z"/>
</g>
<path class="st1" d="M313.8,647.4c19.4-8.3,25.8-25.8,13.8-45.2c-16.6-28.6-63.6-51.6-105.1-51.6s-61.8,23.1-45.2,51.6
	c16.6,28.6,63.6,51.6,105.1,51.6c6.5,0,12.9-0.9,18.4-1.8c12,6.5,27.7,14.8,43.3,14.8C344.2,665.8,328.6,658.5,313.8,647.4z
	 M222.5,615.1c-7.4,0-16.6-6.5-21.2-13.8s-1.8-13.8,5.5-13.8c7.4,0,16.6,6.5,21.2,13.8C232.6,609.6,230.8,615.1,222.5,615.1z
	 M262.1,615.1c-7.4,0-16.6-6.5-21.2-13.8s-1.8-13.8,5.5-13.8c7.4,0,16.6,6.5,21.2,13.8C272.3,609.6,269.5,615.1,262.1,615.1z
	 M298.1,615.1c-7.4,0-16.6-6.5-21.2-13.8s-1.8-13.8,5.5-13.8c7.4,0,16.6,6.5,21.2,13.8C308.3,609.6,306.4,615.1,298.1,615.1z"/>
<path class="st1" d="M770.3,215.8c19.4-8.3,25.8-25.8,13.8-45.2C767.5,142,720.5,119,679,119s-61.8,23.1-45.2,51.6
	c16.6,28.6,63.6,51.6,105.1,51.6c6.5,0,12.9-0.9,18.4-1.8c12,6.5,27.7,14.8,43.3,14.8C800.8,234.2,785.1,226.8,770.3,215.8z
	 M679,183.5c-7.4,0-16.6-6.5-21.2-13.8c-4.6-7.4-1.8-13.8,5.5-13.8c7.4,0,16.6,6.5,21.2,13.8C689.2,177,686.4,183.5,679,183.5z
	 M717.7,183.5c-7.4,0-16.6-6.5-21.2-13.8c-4.6-7.4-1.8-13.8,5.5-13.8c7.4,0,16.6,6.5,21.2,13.8C727.9,177,725.1,183.5,717.7,183.5z
	 M754.6,183.5c-7.4,0-16.6-6.5-21.2-13.8c-4.6-7.4-1.8-13.8,5.5-13.8s16.6,6.5,21.2,13.8C764.8,177,762,183.5,754.6,183.5z"/>
<path class="st2" d="M557,505.6l-96.1,165.9c-1,1.6-1.8,2.2-2.3,2.5c-0.4-0.3-1.2-1-2.2-2.5L354.2,494.6l-0.3-0.4
	c-4.3-6.7-4.3-19.9,0-26.6l68.7-118.8l-18.1-33.4l-78.3,135.7c-5,7.6-16.6,14.5-24.4,14.5H97.1c-1.8,0-2.9-0.3-3.4-0.5
	c0.1-0.5,0.3-1.6,1.3-3.3l102.3-176.9c5-7.6,16.6-14.5,24.4-14.5h170.8l19.8-30.8H216c-15.8,0-33.9,10.5-42.2,24.6L62.3,457.5
	c-8.5,13.5-8.5,35.1,0,48.5l111.5,193.5l0.3,0.4c8.9,13.8,26.9,24.1,41.9,24.1h223.2c15.8,0,33.9-10.5,42.1-24.5l109.6-191.3
	L557,505.6z M330.2,476c-0.3,3.5-0.3,7,0.1,10.5c-2.8-2-5.8-3.7-8.9-5.2C324.4,479.8,327.4,478,330.2,476z M76.9,485.7
	c-0.3-2.7-0.3-5.6,0.1-8.3c1.2,1.5,2.6,2.9,4.2,4.1C79.5,482.7,78.1,484.1,76.9,485.7z M426.3,692.3H221.6
	c-8.6,0-19.7-6.5-24.2-14.2L95,501.1l-0.3-0.4c-0.9-1.4-1.1-2.3-1.1-2.7c0.3-0.2,1.4-0.7,3.5-0.7h204.7c8.6,0,19.7,6.5,24.2,14.2
	l102.4,177.1l0.2,0.4c0.9,1.4,1.1,2.3,1.1,2.7C429.4,691.9,428.3,692.3,426.3,692.3z M447.9,701.6c1.5-2.7,2.3-5.6,2.5-8.5
	c2.6,1.2,5.3,1.8,8.1,1.8c0.1,0,0.2,0,0.3,0C455.7,697.7,451.9,700.1,447.9,701.6z"/>
<g>
	<path class="st3" d="M778.6,95.1c-3.8-7.5-15-14.6-23.1-14.6l-0.3,0l-205-6.5l-0.3,0c-1.5-0.1-2.4,0-2.9,0.2c0,0.5,0.2,1.6,1,3.2
		l95.9,180.8c3.8,7.5,15,14.6,23.1,14.6l0.3,0l204.6,6.5c2.7,0,3.8-0.7,4-0.9c0-0.1,0-1-0.6-2.5L778.6,95.1z"/>
	<path class="st2" d="M907.6,272.7l-105-197.2c-7.7-15.4-26.7-24.8-40.7-25.9l-0.2,0l-223.4-7.4l-0.3,0c-14.2,0-34,8.2-43,23.4
		L373.5,260.3H410l104.4-168c1-1.5,1.8-2.2,2.3-2.5c0.4,0.3,1,1,1.8,2.5l95.9,180.9c4,8.2,3.8,20.8-0.5,27.6l-69.6,112.1l17.8,32.9
		l79.5-127.5c4.8-7.3,16.3-13.5,25.2-13.6l204.5,6.5l0.3,0c1.4,0,2.3,0.2,2.7,0.4c-0.1,0.6-0.4,1.6-1.3,3.1L765.2,488.8
		c-4.8,7.3-16.2,13.5-25.2,13.6l-166.4-5.7L556,526.2l189.1,6.1l0.3,0c14.2,0,34-8.2,43-23.4l118-189l0.1-0.2
		C914.1,307,914.6,285.5,907.6,272.7z M875.9,278.3c-0.2,0.2-1.3,0.9-4,0.9l-204.6-6.5l-0.3,0c-8.1,0-19.3-7.1-23.1-14.6L548,77.3
		c-0.8-1.6-1-2.7-1-3.2c0.5-0.1,1.4-0.3,2.9-0.2l0.3,0l205,6.5l0.3,0c8.1,0,19.3,7.1,23.1,14.6l96.8,180.7
		C876,277.3,876,278.2,875.9,278.3z"/>
</g>
</svg>
