<?xml version="1.0" encoding="utf-8"?>
<!-- Generator: Adobe Illustrator 24.2.1, SVG Export Plug-In . SVG Version: 6.00 Build 0)  -->
<svg version="1.1" id="Layer_1" xmlns="http://www.w3.org/2000/svg" xmlns:xlink="http://www.w3.org/1999/xlink" x="0px" y="0px"
	 viewBox="0 0 1000 1000" style="enable-background:new 0 0 1000 1000;" xml:space="preserve">
<style type="text/css">
	.st0{fill:#161616;}
</style>
<g>
	<path class="st0" d="M178,259.8c7.8,8,16.8,14.6,27,19.9c10.2,5.3,20.5,9.9,30.9,13.9c10.5,4,20.7,7.6,30.8,10.9
		c10.1,3.3,19.1,7,27,11c7.9,4.1,14.3,8.9,19.1,14.3c4.8,5.5,7.2,12.3,7.2,20.5c0,5.5-1,10.6-3.1,15.2c-2.1,4.7-5.3,8.7-9.7,12.1
		c-4.4,3.4-10,6-16.8,8c-6.8,1.9-15,2.9-24.7,2.9c-12.2,0-22.3-0.9-30.4-2.6c-8.1-1.7-15-3.6-20.9-5.6c-5.8-2-10.9-3.8-15.3-5.5
		c-4.4-1.6-9.1-2.5-14.2-2.5c-9.1,0-16.6,2.8-22.5,8.3c-5.9,5.5-8.9,13.6-8.9,24.1c0,6.4,1,11.8,3,16.4c2,4.5,5.4,9.2,10.1,13.9
		c2.9,3.1,7.1,6.1,12.7,9c5.5,3,12.4,5.6,20.5,8c8.1,2.3,17.4,4.3,27.8,5.8c10.5,1.5,22.1,2.3,35,2.3c25.1,0,47.1-3,66-9
		c18.9-6,34.7-14.4,47.3-25.1c12.6-10.7,22.1-23.5,28.4-38.3c6.3-14.8,9.4-30.9,9.4-48.4c0-16.7-2.4-30.9-7.1-42.7
		c-4.7-11.7-11-21.7-19-30c-7.9-8.3-16.9-15.1-27-20.5c-10.1-5.4-20.4-10-30.9-14c-10.5-4-20.9-7.6-30.9-10.8
		c-10.1-3.2-19.1-6.7-27-10.5c-7.9-3.8-14.2-8.3-19-13.4c-4.7-5.1-7.1-11.5-7.1-19.1c0-4.7,0.9-9.1,2.6-13.1c1.7-4,4.5-7.4,8.5-10.2
		c3.9-2.8,8.9-5,14.9-6.7s13.2-2.5,21.5-2.5c10.7,0,19.7,0.8,26.9,2.3c7.2,1.5,13.5,3.3,18.8,5.2c5.4,1.9,10.2,3.6,14.6,5.2
		c4.4,1.5,9.1,2.3,14.2,2.3c9.1,0,16.6-2.7,22.5-8c5.9-5.4,8.9-13.2,8.9-23.6c0-6-0.8-11.2-2.5-15.7c-1.6-4.5-4.8-9-9.5-13.8
		c-3.5-3.5-7.9-6.7-13.2-9.8c-5.4-3.1-11.9-5.8-19.5-8.2c-7.6-2.4-16.3-4.2-25.9-5.6c-9.6-1.4-20.3-2-31.9-2c-24,0-45,2.9-63.1,8.6
		c-18.1,5.7-33.2,13.8-45.3,24.1c-12.1,10.4-21.2,22.6-27.3,36.7c-6.1,14.1-9.1,29.4-9.1,45.9c0,16,2.4,29.7,7.2,41
		C163.8,242.2,170.2,251.8,178,259.8z"/>
	<path class="st0" d="M475.2,859.1L390,610.9c-2-5.8-4-11-5.9-15.7c-1.9-4.6-3.9-8.8-5.9-12.5c-2-3.7-4.1-7.1-6.4-10.2
		c-2.3-3.1-4.8-6-7.5-8.7c-6-5.8-13.5-10.3-22.5-13.5c-9-3.2-20.3-4.8-33.9-4.8c-13.6,0-25,1.6-34,4.8c-9,3.2-16.5,7.7-22.5,13.5
		c-2.7,2.7-5.2,5.6-7.4,8.7c-2.2,3.1-4.3,6.5-6.4,10.2c-2.1,3.7-4.1,7.9-6,12.5c-1.9,4.6-3.9,9.9-5.9,15.7l-84.9,249.8
		c-2.2,6.5-3.7,11.5-4.5,15c-0.8,3.5-1.2,6.9-1.2,10.4c0,6.2,1.5,11.7,4.4,16.6c2.9,4.9,6.7,9.1,11.5,12.5c4.7,3.5,10,6,15.8,7.8
		c5.8,1.7,11.6,2.6,17.5,2.6c6.7,0,12.5-0.9,17.5-2.7s9-4.4,12.3-7.6c3.5-3.5,6.2-7.8,8.3-13c2.1-5.2,4.1-11.1,6.1-17.9l12.8-41.2
		h128.7l13.4,41.2c2,6.5,4.1,12.3,6.3,17.2s5,9,8.5,12.3c3.6,3.8,8,6.7,13.2,8.7c5.2,2,11.2,3,18.1,3c5.8,0,11.8-0.9,17.9-2.6
		c6.1-1.7,11.6-4.3,16.6-7.8c5-3.5,9.1-7.8,12.3-13.1c3.2-5.3,4.8-11.4,4.8-18.3c0-3.1-0.4-6.4-1.2-9.8
		C478.9,870.6,477.4,865.6,475.2,859.1z M261.1,772.3l26.9-90.8c2.2-7.5,4.1-14.5,5.9-21c1.7-6.5,3.3-12.3,4.8-17.2
		c1.4-5.8,2.8-11.3,4.1-16.4h1.1c1.1,5.1,2.5,10.5,4.4,16.4c1.5,4.9,3.1,10.6,4.9,17.2c1.8,6.5,3.9,13.5,6.3,21l28.9,90.8H261.1z"/>
	<path class="st0" d="M854.3,554.9c-7-6.5-17.4-9.7-31.2-9.7c-14.2,0-24.9,3.3-32.3,9.8c-7.4,6.5-10.8,15.5-10.2,27l4.9,162.2
		c0.2,8.9,0.6,17.4,1.4,25.4c0.7,8,1.4,15.1,1.9,21.3c0.7,7.3,1.5,14.1,2.5,20.5l-1.4,0.5c-2.4-5.5-4.9-11.2-7.6-17.2
		c-2.4-5.3-5.1-11.2-8.3-17.7c-3.2-6.5-6.8-13.3-10.8-20.2l-95.7-162.5c-4.5-8-9-15-13.5-21.1c-4.5-6.1-9.5-11.2-15.1-15.4
		c-5.6-4.2-12-7.3-19.2-9.4c-7.2-2.1-16-3.1-26.3-3.1c-22.2,0-38.6,5.2-49.2,15.7c-10.6,10.5-16,26.4-16,47.9V888
		c0,11.6,3.5,20.7,10.5,27.1c7,6.5,17.5,9.7,31.5,9.7c14.2,0,24.9-3.3,32.2-9.8c7.3-6.5,10.6-15.5,10.1-27l-4.6-162.2
		c-0.4-8.7-0.9-17.1-1.5-25.2c-0.6-8.1-1.3-15.2-2-21.4c-0.7-7.3-1.5-14.1-2.2-20.5l1.1-0.5c2.4,5.5,4.9,11.2,7.6,17.2
		c2.2,5.3,5,11.2,8.3,17.7c3.4,6.5,7,13.3,10.8,20.2l95.7,162.5c4.5,8,9,15,13.5,21.1c4.5,6.1,9.5,11.2,15.1,15.4
		c5.6,4.2,12.1,7.3,19.4,9.4s16,3.1,26.2,3.1c22.2,0,38.6-5.2,49.2-15.7c10.6-10.5,16-26.5,16-48.1V582
		C864.8,570.4,861.3,561.3,854.3,554.9z"/>
	<path class="st0" d="M585.3,460.9h221.5c17.5,0,31.6-14.1,31.6-31.6v-15.5c0-17.5-14.1-31.6-31.6-31.6H742V154.9h64.7
		c17.5,0,31.6-14.1,31.6-31.6v-15.5c0-17.5-14.1-31.6-31.6-31.6H585.3c-17.5,0-31.6,14.1-31.6,31.6v15.5c0,17.5,14.1,31.6,31.6,31.6
		h61.9v227.3h-61.9c-17.5,0-31.6,14.1-31.6,31.6v15.5C553.7,446.8,567.8,460.9,585.3,460.9z"/>
</g>
</svg>
