<?xml version="1.0" encoding="utf-8"?>
<!-- Generator: Adobe Illustrator 24.2.1, SVG Export Plug-In . SVG Version: 6.00 Build 0)  -->
<svg version="1.1" id="Layer_1" xmlns="http://www.w3.org/2000/svg" xmlns:xlink="http://www.w3.org/1999/xlink" x="0px" y="0px"
	 viewBox="0 0 474 1443" style="enable-background:new 0 0 474 1443;" xml:space="preserve">
<style type="text/css">
	.st0{fill:none;stroke:#EBBAAA;stroke-width:54;stroke-linecap:round;stroke-linejoin:bevel;}
	.st1{fill:#898989;}
	.st2{fill:#1C1612;}
	.st3{fill:none;stroke:#302E2D;stroke-width:5.4137;stroke-linecap:round;stroke-linejoin:round;}
	.st4{fill:none;stroke:#2D2C2B;stroke-width:7;stroke-linecap:round;}
	.st5{fill:#4D5457;}
	.st6{fill:#434A4C;}
	.st7{fill:none;stroke:#EBBAAA;stroke-width:74;stroke-linecap:round;stroke-linejoin:bevel;}
	.st8{fill:#A1A1B7;}
	.st9{fill:#BFBFCB;}
	.st10{fill:#C69889;}
	.st11{fill:#DBAD9A;}
	.st12{fill:#3D3C3B;}
	.st13{fill-rule:evenodd;clip-rule:evenodd;fill:#272727;}
	.st14{fill:#272727;}
	.st15{fill:#A37A6F;}
</style>
<desc>Created with Sketch.</desc>
<g id="GEE_x21_-ME">
	<g id="gee_me_092" transform="translate(-363.000000, -79.000000)">
		<g transform="translate(344.000000, 79.000000)">
			<g id="lower-limb" transform="translate(52.000000, 885.000000)">
				<path id="Path" class="st0" d="M277,351.5L264.5,483"/>
				<path id="Path_1_" class="st0" d="M131,351.5L143.5,483"/>
				<g id="Group-198" transform="translate(208.000000, 453.000000)">
					<path id="Vector-249" class="st1" d="M198.8,85.3c1.9-4.7,0.5-11.1-0.5-12.8c-1.1-1.7-129.2-9.7-129.2-9.7
						C47.8,61,5.7,53.7,2.8,66.3c-3.6,15.6-3.4,19.1-1,31.2c3.9,4,64.8-2.5,73.2-0.5c17.2,4,20.5,8,73.7,8
						C191.4,101,194.6,95.8,198.8,85.3z"/>
					<path id="Vector-248" class="st2" d="M60.2,17.5c-10.7,0.1-27-3.4-35.9-15.7c-0.8-1.1-2.4-1.3-3.3-0.3c-8,8.6-2.8,3.7-6,18.5
						c-3.2,14.6-5.8,12.5-9,26.1c-2.2,9.4-9.3,31.3,0,31.3h42.4c10,0,23.6,11.7,57,15c55.4,5.4,69-2,80.1-5.5
						c25.2-8,12.4-26.3,0-32.2c-18.2-8.6-44.2-15-57.5-22.1c-10.3-5.5-13.9-7.3-19.2-13.1c-6.8-7.4-9.6-12.2-11.8-15.9
						c-0.9-1.5-3.3-1.2-4.3,0.3C87,13.3,70.1,17.4,60.2,17.5z"/>
					<path id="Vector-293" class="st3" d="M93.6,8c-2.2,4.9-10.9,10.4-10.9,14.2l21.4-7.7L93.6,30.1l20.1-5.8l-9.5,13.3l22.6-4.6
						l-13,12.6"/>
					<path id="Vector-707" class="st4" d="M179.1,71.6c-9.4,2.8-23.6,6.9-45.1,2.4"/>
					<path id="Vector-706" d="M107.6,45.2c-9.8-9-17.1-13.6-25-23.6c-4.3,0-9.9,0.5-26.1,0.5C35.4,22,29.8,13,20.5,2.4
						c-7.1,4.5-3.4,14.1-8.4,27.2C8.2,40,0.8,55.7,0.8,74.8c3.4,6,37.3,3,48.1,3c2.5-12.1,21.6-22.1,30.1-24.6
						C86.6,51,95.3,50.2,107.6,45.2z"/>
				</g>
				<g id="Group-198_2" transform="translate(0.000000, 453.000000)">
					<path id="Vector-249_2" class="st1" d="M1.2,85.3c-1.9-4.7-0.5-11.1,0.5-12.8c1.1-1.7,129.2-9.7,129.2-9.7
						c21.3-1.7,63.4-9.1,66.3,3.5c3.6,15.6,3.4,19.1,1,31.2c-3.9,4-64.8-2.5-73.2-0.5c-17.2,4-20.5,8-73.7,8
						C8.6,101,5.4,95.8,1.2,85.3z"/>
					<path id="Vector-248_2" class="st2" d="M139.8,17.5c10.7,0.1,27-3.4,35.9-15.7c0.8-1.1,2.4-1.3,3.3-0.3c8,8.6,2.8,3.7,6,18.5
						c3.2,14.6,5.8,12.5,9,26.1c2.2,9.4,9.3,31.3,0,31.3h-42.4c-10,0-23.6,11.7-57,15c-55.5,5.4-69-2-80.1-5.5
						c-25.2-8-12.4-26.3,0-32.2c18.2-8.6,44.2-15,57.5-22.1c10.3-5.5,13.9-7.3,19.2-13.1c6.8-7.4,9.6-12.2,11.8-15.9
						c0.9-1.5,3.3-1.2,4.3,0.3C113,13.3,129.9,17.4,139.8,17.5z"/>
					<path id="Vector-293_2" class="st3" d="M106.4,8c2.2,4.9,10.9,10.4,10.9,14.2l-21.4-7.7l10.5,15.6l-20.1-5.8l9.5,13.3L73.2,33
						l13,12.6"/>
					<path id="Vector-707_2" class="st4" d="M20.9,71.6c9.4,2.8,23.6,6.9,45.1,2.4"/>
					<path id="Vector-706_2" d="M92.4,45.2c9.8-9,17.1-13.6,25-23.6c4.3,0,9.9,0.5,26.1,0.5c21.1,0,26.7-9.1,36.1-19.6
						c7.1,4.5,3.4,14.1,8.4,27.2c3.9,10.5,11.3,26.1,11.3,45.3c-3.4,6-37.3,3-48.1,3c-2.5-12.1-21.6-22.1-30.1-24.6
						C113.4,51,104.7,50.2,92.4,45.2z"/>
				</g>
				<path id="Path_2_" class="st5" d="M204,118c63.5,0,115-26.4,115-59S267.5,0,204,0S89,26.4,89,59S140.5,118,204,118z"/>
				<path id="Path_3_" class="st5" d="M209,45h135l-19.2,346c-0.2,4.3-1.4,8.5-3.4,12.3L302.1,440h-66.4l-7.2-34.5L209,45z"/>
				<path id="Path_4_" class="st6" d="M242.1,432h58.6c6.9,0,12.1,6.3,10.8,13l0,0c-1,5.2-5.5,9-10.8,9h-58.6
					c-5.3,0-9.9-3.8-10.8-9.1v0C230.1,438.2,235.3,432,242.1,432z"/>
				<path id="Path_5_" class="st5" d="M199,45H64l19.2,345c0.3,4.9,1.7,9.7,4.1,13.9l20.6,36h64.4l7.2-34.5L199,45z"/>
				<path id="Path_6_" class="st6" d="M165.9,432h-58.6c-6.9,0-12.1,6.3-10.8,13l0,0c1,5.2,5.5,9,10.8,9h58.6
					c5.3,0,9.9-3.8,10.8-9.1v0C177.9,438.2,172.7,432,165.9,432z"/>
			</g>
			<g id="upper-limb" transform="translate(0.000000, 456.770000)">
				<path id="Path_7_" class="st7" d="M140,118.2c-44,78-80,266-64,310"/>
				<path id="Path_8_" class="st7" d="M372,118.2c44,78,80,266,64,310"/>
				<path id="Rectangle-287" class="st8" d="M186.1,44.2L186.1,44.2c45.3,12.2,72.3,58.8,60.1,104.1l-59.5,222.2
					c-12.2,45.3-58.8,72.3-104.1,60.1l0,0c-45.3-12.2-72.3-58.8-60.1-104.1L82,104.3C94.2,59,140.8,32.1,186.1,44.2z"/>
				<path id="Rectangle-288" class="st8" d="M325.9,44.2L325.9,44.2c-45.3,12.2-72.3,58.8-60.1,104.1l59.5,222.2
					c12.2,45.3,58.8,72.3,104.1,60.1h0c45.3-12.2,72.3-58.8,60.1-104.1L430,104.3C417.8,59,371.2,32.1,325.9,44.2z"/>
				<path id="Rectangle-284" class="st9" d="M103.2,86.9c1.7-21.4,16.8-39.2,37.6-44.5L256,13.2l115.3,29.2
					c20.8,5.3,35.9,23.2,37.6,44.5L426,302.2l-15,104l-7.1,12.1c-1.8,3.1-5.1,4.9-8.6,4.9H111l-10-17l-15-104L103.2,86.9z"/>
				<path id="Path_9_" class="st8" d="M256.7,100c27.6,0,50-22.4,50-50c0-27.6-22.4-50-50-50c-27.6,0-50,22.4-50,50
					C206.7,77.6,229.1,100,256.7,100z"/>
				<path id="Rectangle-312" class="st8" d="M116,423.2h280l7.6,38c1.2,6.2-3.5,12-9.8,12H118.2c-6.3,0-11-5.8-9.8-12L116,423.2z"/>
			</g>
			<g id="head" transform="translate(70.999900, 0.000000)">
				<path id="Path_10_" class="st10" d="M185,342L185,342c22.1,0,40,17.9,40,40v115c0,22.1-17.9,40-40,40l0,0c-22.1,0-40-17.9-40-40
					V382C145,359.9,162.9,342,185,342z"/>
				<path id="Path_11_" class="st10" d="M145,492c0-22.1,17.9-40,40-40c22.1,0,40,17.9,40,40v5c0,22.1-17.9,40-40,40
					c-22.1,0-40-17.9-40-40V492z"/>
				<path id="Path_12_" class="st10" d="M330,327c22.1,0,40-17.9,40-40c0-22.1-17.9-40-40-40s-40,17.9-40,40
					C290,309.1,307.9,327,330,327z"/>
				<path id="Path_13_" class="st10" d="M40,327c-22.1,0-40-17.9-40-40c0-22.1,17.9-40,40-40c22.1,0,40,17.9,40,40
					C80,309.1,62.1,327,40,327z"/>
				<path id="Path_14_" class="st11" d="M35,189c0-82.8,67.2-150,150-150s150,67.2,150,150v120c0,82.8-67.2,150-150,150
					S35,391.8,35,309V189z"/>
				<path id="Path_15_" class="st12" d="M340,188l-8-48h-32l5,45c0,0,14.1,17.2,20,30c9.6,20.9,10,58,10,58L340,188z"/>
				<path id="Path_16_" class="st12" d="M30,188l8-48h32l-5,45c0,0-14.1,17.2-20,30c-9.6,20.9-10,58-10,58L30,188z"/>
				<path id="Union" class="st13" d="M340,188c0,0,0-63-155-63S30,188,30,188c0-40.2-9.7-82,15-113c29.7-37.3,97.7-60,140-60
					c42.5,0,110.3,22.4,140,60C349.5,105.9,340,148.1,340,188z"/>
				<path id="Path_17_" class="st14" d="M225.4,215.9l56,10c4.9,0.9,9.6-2.4,10.4-7.3c0.9-4.9-2.4-9.6-7.3-10.4l-56-10
					c-4.9-0.9-9.6,2.4-10.4,7.3C217.3,210.3,220.5,215,225.4,215.9z"/>
				<path id="Path_18_" class="st14" d="M88.6,225.9l56-10c4.9-0.9,8.2-5.5,7.3-10.4c-0.9-4.9-5.5-8.2-10.4-7.3l-56,10
					c-4.9,0.9-8.2,5.5-7.3,10.4C79,223.5,83.7,226.7,88.6,225.9z"/>
				<path id="Vector-220" class="st15" d="M220.9,368.5l-0.4,0.2c-0.2,0.1-0.6,0.3-0.9,0.5l-0.5,0.2c-1.9,0.9-4.3,1.8-6.9,2.6
					c-7.8,2.4-16.9,3.9-27.2,3.9c-10.3,0-19.4-1.5-27.2-3.9c-2.5-0.8-4.6-1.6-6.5-2.4l-0.5-0.2c-1.1-0.5-1.8-0.8-2-1
					c-3.7-2.1-8.4-0.9-10.5,2.8c-2.1,3.6-0.9,8.2,2.6,10.4l0.2,0.1c0.2,0.1,0.5,0.3,0.8,0.4l0.2,0.1c0.7,0.4,1.5,0.7,2.4,1.1
					c2.5,1.1,5.4,2.2,8.7,3.3c9.3,2.9,19.9,4.6,31.8,4.6c11.9,0,22.5-1.7,31.8-4.6c3.3-1,6.2-2.1,8.7-3.3c0.8-0.3,1.4-0.7,2-1
					l0.4-0.2c0.5-0.2,0.8-0.4,1-0.5c3.7-2.1,4.9-6.8,2.8-10.5c-2-3.5-6.5-4.8-10.1-3l-0.2,0.1L220.9,368.5z"/>
				<path id="Path_21_" class="st10" d="M175.9,272.3c-6.6,9.8-11.4,23.8-11.4,35.3c0,16.7,10,27.9,28.5,27.9v-17
					c-8.7,0-11.5-3.2-11.5-10.9c0-7.9,3.8-18.7,8.6-25.9L175.9,272.3z"/>
			</g>
		</g>
	</g>
</g>
<circle cx="173" cy="249" r="17"/>
<circle cx="301.7" cy="249" r="17"/>
<path class="st14" d="M115.3,69c0-32,10.7-28,26.7-36s8.4-13.4,31-13s41-17,52-14s34,10,45,9s30-8,37,0s28,22,35,19s23,35,20,35
	S115.3,69,115.3,69z"/>
<path class="st14" d="M288.6,107c-33,25-5.4,42.8,11.1,33s-22.7-20-21.3,8c1.3,28,40.1,9,25.4,4c-14.7-5-23.2,17-13.6,19"/>
<g>
	<path class="st5" d="M173.9,641.9c0-1.5,0.4-2.8,1.3-3.6c0.9-0.9,2.1-1.3,3.6-1.3h9.8c3.1,0,5.7,0.3,7.9,0.8
		c2.2,0.6,3.9,1.3,5.3,2.3c1.4,1,2.4,2.1,3,3.5c0.6,1.3,0.9,2.8,0.9,4.3c0,1.2-0.2,2.3-0.5,3.3s-0.8,1.9-1.4,2.7
		c-0.6,0.8-1.3,1.5-2.2,2.1c-0.8,0.6-1.8,1.1-2.9,1.4v0.1c1.2,0.2,2.4,0.6,3.4,1.1c1,0.5,1.9,1.2,2.7,2c0.7,0.8,1.3,1.8,1.7,2.8
		c0.4,1.1,0.6,2.3,0.6,3.6c0,2-0.4,3.8-1.1,5.4c-0.7,1.7-1.9,3.1-3.4,4.3c-1.6,1.2-3.5,2.1-6,2.8c-2.4,0.7-5.3,1-8.7,1h-9.3
		c-1.6,0-2.8-0.4-3.6-1.3c-0.9-0.9-1.3-2.1-1.3-3.6V641.9z M188.2,654.6c1.1,0,2.1-0.1,2.9-0.4s1.5-0.6,2-1c0.5-0.4,0.9-1,1.2-1.6
		s0.4-1.3,0.4-2c0-0.7-0.1-1.4-0.4-2c-0.2-0.6-0.6-1.1-1.1-1.5c-0.5-0.4-1.2-0.7-2-1c-0.8-0.2-1.8-0.3-3-0.3h-3.5v9.8H188.2z
		 M188.5,672.9c1.3,0,2.5-0.1,3.4-0.4c0.9-0.3,1.7-0.7,2.3-1.1c0.6-0.5,1.1-1.1,1.4-1.7c0.3-0.7,0.4-1.4,0.4-2.2
		c0-0.8-0.1-1.5-0.4-2.2c-0.3-0.7-0.7-1.2-1.3-1.7c-0.6-0.5-1.4-0.8-2.3-1s-2.1-0.4-3.5-0.4h-3.9v10.8H188.5z"/>
	<path class="st5" d="M212.4,660.4c0-3.7,0.5-7,1.5-9.9c1-3,2.5-5.5,4.4-7.6c1.9-2.1,4.1-3.7,6.8-4.8c2.6-1.1,5.6-1.7,8.8-1.7
		c1.3,0,2.5,0.1,3.6,0.3c1.1,0.2,2.1,0.4,2.9,0.7c0.8,0.3,1.6,0.6,2.2,1c0.6,0.4,1.1,0.7,1.4,1c0.5,0.6,0.9,1.1,1.2,1.7
		c0.2,0.6,0.3,1.3,0.3,2.1c0,0.6-0.1,1.1-0.3,1.6c-0.2,0.5-0.4,0.9-0.8,1.2c-0.3,0.3-0.7,0.6-1.2,0.8s-0.9,0.3-1.5,0.3
		c-0.5,0-1-0.1-1.4-0.3c-0.5-0.2-1-0.4-1.5-0.7c-0.6-0.2-1.2-0.5-2-0.7c-0.8-0.2-1.7-0.3-2.9-0.3c-1.4,0-2.7,0.3-3.9,0.9
		c-1.2,0.6-2.3,1.4-3.3,2.6c-0.9,1.2-1.7,2.6-2.3,4.4c-0.6,1.8-0.8,3.9-0.8,6.3c0,2.2,0.3,4.1,0.8,5.7c0.5,1.7,1.3,3,2.2,4.2
		c1,1.1,2.1,2,3.4,2.5c1.3,0.6,2.7,0.8,4.3,0.8c1.1,0,2.1-0.1,2.9-0.3c0.8-0.2,1.5-0.4,2.1-0.7s1.1-0.5,1.6-0.7
		c0.5-0.2,0.9-0.3,1.4-0.3c0.4,0,0.9,0.1,1.3,0.3c0.4,0.2,0.7,0.4,1,0.7c0.3,0.3,0.5,0.7,0.7,1.2s0.3,0.9,0.3,1.5
		c0,0.7-0.1,1.3-0.4,1.9c-0.3,0.6-0.6,1.1-1.1,1.6c-0.4,0.4-0.9,0.8-1.6,1.2c-0.7,0.4-1.5,0.8-2.4,1.1c-1,0.3-2.1,0.6-3.3,0.8
		c-1.3,0.2-2.7,0.3-4.3,0.3c-3,0-5.8-0.5-8.3-1.4c-2.5-1-4.6-2.3-6.4-4.2c-1.8-1.8-3.1-4-4.1-6.6
		C212.9,666.5,212.4,663.6,212.4,660.4z"/>
	<path class="st5" d="M252,641.6c0-1.6,0.5-2.8,1.4-3.6c0.9-0.8,2.3-1.3,4.1-1.3c1.9,0,3.3,0.4,4.2,1.3c0.9,0.8,1.3,2,1.3,3.6v34.5
		c0,1.6-0.4,2.8-1.3,3.6s-2.3,1.3-4.2,1.3c-1.9,0-3.3-0.4-4.2-1.3c-0.9-0.8-1.3-2-1.3-3.6V641.6z"/>
	<path class="st5" d="M271.9,645.7c-1.1,0-2-0.4-2.7-1.1c-0.7-0.7-1-1.8-1-3.3c0-1.5,0.3-2.6,1-3.3c0.7-0.7,1.6-1.1,2.7-1.1h28.6
		c1.2,0,2.1,0.4,2.7,1.1c0.7,0.7,1,1.8,1,3.3c0,1.5-0.3,2.6-1,3.3c-0.7,0.7-1.6,1.1-2.7,1.1h-8.8v30.3c0,1.6-0.4,2.8-1.3,3.6
		s-2.3,1.3-4.2,1.3c-1.9,0-3.3-0.4-4.2-1.3c-0.9-0.8-1.3-2-1.3-3.6v-30.3H271.9z"/>
</g>
</svg>
